{"title":"Red River(1948)MP-4[DaScubaDude]","uid":12352156,"size":1338499231,"categoryP":"video","categoryS":"movies","magnet":"?xt=urn:btih:9f186e36e7e27fcc5d788d77e02b288ccf7e75bb&amp;dn=Red+River%281948%29MP-4%5BDaScubaDude%5D&amp;tr=udp%3A%2F%2Ftracker.openbittorrent.com%3A80&amp;tr=udp%3A%2F%2Fopen.demonii.com%3A1337&amp;tr=udp%3A%2F%2Ftracker.coppersurfer.tk%3A6969&amp;tr=udp%3A%2F%2Fexodus.desync.com%3A6969","seeders":0,"leechers":0,"uploader":"dascuba","files":1,"time":1441439703,"description":"Red River (1948)\nApproved  |  133 min  |  Action, Adventure, Romance  |  17 September 1948 (USA)\n7.8 Your rating:   -/10   Ratings: 7.8/10 from 19,729 users   \nReviews: 156 user | 89 critic\nDunson is driving his cattle to Red River when his adopted son, Matthew, turns against him.\n\nDirectors: Howard Hawks, Arthur Rosson\nWriters: Borden Chase (screenplay), Charles Schnee (screenplay), 1 more credit Â»\nStars: John Wayne, Montgomery Clift, Joanne Dru |\n\n\n\nGeneral\nComplete name                            : C:Red River(1948)REDRIVER_Title1.mp4\nFormat                                   : MPEG-4\nFormat profile                           : Base Media\nCodec ID                                 : isom\nFile size                                : 1.25 GiB\nDuration                                 : 2h 12mn\nOverall bit rate mode                    : Variable\nOverall bit rate                         : 1 345 Kbps\nMovie name                               : REDRIVER\nGenre                                    : Western\nWriting application                      : Lavf54.6.100\n\nVideo\nID                                       : 1\nFormat                                   : AVC\nFormat/Info                              : Advanced Video Codec\nFormat profile                           : Baseline@L3\nFormat settings, CABAC                   : No\nFormat settings, ReFrames                : 6 frames\nFormat settings, GOP                     : M=1, N=60\nCodec ID                                 : avc1\nCodec ID/Info                            : Advanced Video Coding\nDuration                                 : 2h 12mn\nBit rate                                 : 1 206 Kbps\nWidth                                    : 720 pixels\nHeight                                   : 540 pixels\nDisplay aspect ratio                     : 4:3\nFrame rate mode                          : Constant\nFrame rate                               : 29.970 fps\nColor space                              : YUV\nChroma subsampling                       : 4:2:0\nBit depth                                : 8 bits\nScan type                                : Progressive\nBits/(Pixel*Frame)                       : 0.104\nStream size                              : 1.12 GiB (90%)\n\nAudio\nID                                       : 2\nFormat                                   : AAC\nFormat/Info                              : Advanced Audio Codec\nFormat profile                           : LC\nCodec ID                                 : 40\nDuration                                 : 2h 12mn\nBit rate mode                            : Variable\nBit rate                                 : 132 Kbps\nMaximum bit rate                         : 179 Kbps\nChannel(s)                               : 2 channels\nChannel positions                        : Front: L R\nSampling rate                            : 44.1 KHz\nCompression mode                         : Lossy\nStream size                              : 125 MiB (10%)","torrent":{"xt":"urn:btih:9f186e36e7e27fcc5d788d77e02b288ccf7e75bb","amp;dn":"Red+River%281948%29MP-4%5BDaScubaDude%5D","amp;tr":["udp%3A%2F%2Ftracker.openbittorrent.com%3A80","udp%3A%2F%2Fopen.demonii.com%3A1337","udp%3A%2F%2Ftracker.coppersurfer.tk%3A6969","udp%3A%2F%2Fexodus.desync.com%3A6969"],"infoHash":"9f186e36e7e27fcc5d788d77e02b288ccf7e75bb","infoHashBuffer":{"type":"Buffer","data":[159,24,110,54,231,226,127,204,93,120,141,119,224,43,40,140,207,126,117,187]},"announce":[],"urlList":[]}}